<mxfile host="app.diagrams.net" agent="Mozilla/5.0 (Windows NT 10.0; Win64; x64) AppleWebKit/537.36 (KHTML, like Gecko) Chrome/140.0.0.0 Safari/537.36" version="28.2.3">
  <diagram name="PÃ¡gina-1" id="ZD3sEaxlK3-h_N1zWfA9">
    <mxGraphModel dx="1042" dy="562" grid="1" gridSize="10" guides="1" tooltips="1" connect="1" arrows="1" fold="1" page="1" pageScale="1" pageWidth="827" pageHeight="1169" math="0" shadow="0">
      <root>
        <mxCell id="0" />
        <mxCell id="1" parent="0" />
        <mxCell id="23Ij_ByGjPf7GGgTEa4c-1" value="&lt;div&gt;&lt;span style=&quot;background-color: transparent; color: light-dark(rgb(0, 0, 0), rgb(255, 255, 255));&quot;&gt;Employees&lt;/span&gt;&lt;/div&gt;&lt;div&gt;---&lt;/div&gt;&lt;div&gt;_id&lt;/div&gt;&lt;div&gt;-name&lt;/div&gt;&lt;div&gt;-email&lt;/div&gt;&lt;div&gt;-phone&lt;/div&gt;&lt;div&gt;-position&lt;/div&gt;&lt;div&gt;&lt;br&gt;&lt;/div&gt;" style="whiteSpace=wrap;html=1;aspect=fixed;" vertex="1" parent="1">
          <mxGeometry x="60" y="50" width="170" height="170" as="geometry" />
        </mxCell>
        <mxCell id="23Ij_ByGjPf7GGgTEa4c-7" style="edgeStyle=orthogonalEdgeStyle;rounded=0;orthogonalLoop=1;jettySize=auto;html=1;exitX=0.5;exitY=0;exitDx=0;exitDy=0;" edge="1" parent="1" source="23Ij_ByGjPf7GGgTEa4c-2">
          <mxGeometry relative="1" as="geometry">
            <mxPoint x="414" y="210" as="targetPoint" />
          </mxGeometry>
        </mxCell>
        <mxCell id="23Ij_ByGjPf7GGgTEa4c-2" value="Sales" style="whiteSpace=wrap;html=1;aspect=fixed;" vertex="1" parent="1">
          <mxGeometry x="329" y="210" width="170" height="170" as="geometry" />
        </mxCell>
        <mxCell id="23Ij_ByGjPf7GGgTEa4c-3" value="Glasses&lt;div&gt;---&lt;/div&gt;&lt;div&gt;_id&lt;/div&gt;&lt;div&gt;-prescription&lt;/div&gt;&lt;div&gt;-frametype&lt;/div&gt;&lt;div&gt;-framecolor&lt;/div&gt;&lt;div&gt;-lenscolor&lt;/div&gt;&lt;div&gt;-price&lt;/div&gt;&lt;div&gt;&lt;br&gt;&lt;/div&gt;" style="whiteSpace=wrap;html=1;aspect=fixed;" vertex="1" parent="1">
          <mxGeometry x="590" y="50" width="170" height="170" as="geometry" />
        </mxCell>
        <mxCell id="23Ij_ByGjPf7GGgTEa4c-4" value="&lt;div&gt;&lt;br&gt;&lt;/div&gt;&lt;div&gt;&lt;br&gt;&lt;/div&gt;Clients&lt;div&gt;---&lt;br&gt;&lt;div&gt;&lt;br&gt;&lt;/div&gt;&lt;div&gt;_id&lt;/div&gt;&lt;div&gt;-name&lt;/div&gt;&lt;div&gt;-address&lt;/div&gt;&lt;div&gt;-email&lt;/div&gt;&lt;div&gt;phone&lt;/div&gt;&lt;div&gt;-&lt;/div&gt;&lt;div&gt;&lt;br&gt;&lt;/div&gt;&lt;/div&gt;" style="whiteSpace=wrap;html=1;aspect=fixed;" vertex="1" parent="1">
          <mxGeometry x="60" y="347.5" width="170" height="170" as="geometry" />
        </mxCell>
        <mxCell id="23Ij_ByGjPf7GGgTEa4c-5" value="Suppliers&lt;div&gt;---&lt;/div&gt;&lt;div&gt;_id&lt;/div&gt;&lt;div&gt;-name&lt;/div&gt;&lt;div&gt;-address&lt;/div&gt;&lt;div&gt;-phone&lt;/div&gt;&lt;div&gt;-fax&lt;/div&gt;&lt;div&gt;-taxID&lt;/div&gt;" style="whiteSpace=wrap;html=1;aspect=fixed;" vertex="1" parent="1">
          <mxGeometry x="590" y="347.5" width="170" height="170" as="geometry" />
        </mxCell>
        <mxCell id="23Ij_ByGjPf7GGgTEa4c-9" value="" style="endArrow=classic;html=1;rounded=0;" edge="1" parent="1">
          <mxGeometry width="50" height="50" relative="1" as="geometry">
            <mxPoint x="499" y="210" as="sourcePoint" />
            <mxPoint x="580" y="130" as="targetPoint" />
          </mxGeometry>
        </mxCell>
        <mxCell id="23Ij_ByGjPf7GGgTEa4c-10" value="" style="endArrow=classic;html=1;rounded=0;" edge="1" parent="1">
          <mxGeometry width="50" height="50" relative="1" as="geometry">
            <mxPoint x="319" y="200" as="sourcePoint" />
            <mxPoint x="240" y="110" as="targetPoint" />
            <Array as="points">
              <mxPoint x="329" y="210" />
            </Array>
          </mxGeometry>
        </mxCell>
        <mxCell id="23Ij_ByGjPf7GGgTEa4c-11" value="" style="endArrow=classic;html=1;rounded=0;" edge="1" parent="1">
          <mxGeometry width="50" height="50" relative="1" as="geometry">
            <mxPoint x="329" y="380" as="sourcePoint" />
            <mxPoint x="240" y="480" as="targetPoint" />
          </mxGeometry>
        </mxCell>
        <mxCell id="23Ij_ByGjPf7GGgTEa4c-12" value="" style="endArrow=classic;html=1;rounded=0;" edge="1" parent="1">
          <mxGeometry width="50" height="50" relative="1" as="geometry">
            <mxPoint x="499" y="380" as="sourcePoint" />
            <mxPoint x="580" y="470" as="targetPoint" />
            <Array as="points" />
          </mxGeometry>
        </mxCell>
        <mxCell id="23Ij_ByGjPf7GGgTEa4c-13" value="clientID" style="text;html=1;align=center;verticalAlign=middle;whiteSpace=wrap;rounded=0;" vertex="1" parent="1">
          <mxGeometry x="240" y="380" width="60" height="30" as="geometry" />
        </mxCell>
        <mxCell id="23Ij_ByGjPf7GGgTEa4c-14" value="employeeID" style="text;html=1;align=center;verticalAlign=middle;whiteSpace=wrap;rounded=0;" vertex="1" parent="1">
          <mxGeometry x="280" y="120" width="60" height="30" as="geometry" />
        </mxCell>
        <mxCell id="23Ij_ByGjPf7GGgTEa4c-15" value="glassesID" style="text;html=1;align=center;verticalAlign=middle;whiteSpace=wrap;rounded=0;" vertex="1" parent="1">
          <mxGeometry x="490" y="120" width="60" height="30" as="geometry" />
        </mxCell>
      </root>
    </mxGraphModel>
  </diagram>
</mxfile>
